<?xml version="1.0" standalone="no"?>
<!DOCTYPE svg PUBLIC "-//W3C//DTD SVG 20010904//EN"
 "http://www.w3.org/TR/2001/REC-SVG-20010904/DTD/svg10.dtd">
<svg version="1.0" xmlns="http://www.w3.org/2000/svg"
 width="512.000000pt" height="512.000000pt" viewBox="0 0 512.000000 512.000000"
 preserveAspectRatio="xMidYMid meet">

<g transform="translate(0.000000,512.000000) scale(0.100000,-0.100000)"
fill="#ffffff" stroke="none">
<path d="M1624 4729 c-461 -29 -786 -191 -1008 -502 -92 -129 -168 -323 -201
-516 -28 -157 -35 -395 -35 -1151 0 -756 7 -994 35 -1151 95 -546 448 -899
994 -994 157 -28 395 -35 1151 -35 756 0 994 7 1151 35 482 84 827 380 954
820 67 231 75 379 75 1325 0 756 -7 994 -35 1151 -95 546 -448 899 -994 994
-46 8 -154 19 -240 25 -179 11 -1666 11 -1847 -1z m1771 -389 c369 -20 535
-78 701 -244 167 -167 224 -332 244 -706 13 -252 13 -1408 0 -1660 -20 -374
-77 -539 -244 -706 -167 -167 -332 -224 -706 -244 -252 -13 -1408 -13 -1660 0
-374 20 -539 77 -706 244 -166 166 -224 332 -244 701 -13 246 -13 1424 0 1670
21 373 78 536 249 705 160 159 333 221 668 239 221 12 1479 12 1698 1z"/>
<path d="M3665 3981 c-75 -19 -151 -85 -181 -156 -24 -57 -22 -152 5 -209 26
-52 88 -111 140 -133 49 -21 146 -20 196 1 50 21 110 78 138 131 29 56 29 164
-1 221 -57 111 -186 174 -297 145z"/>
<path d="M2365 3664 c-532 -94 -925 -562 -925 -1104 0 -618 502 -1120 1120
-1120 694 0 1221 626 1104 1311 -104 607 -691 1020 -1299 913z m378 -400 c34
-8 100 -34 147 -57 70 -34 102 -58 181 -136 78 -79 102 -111 136 -181 60 -122
76 -194 76 -330 0 -136 -16 -208 -76 -330 -34 -70 -58 -102 -136 -181 -79 -78
-111 -102 -181 -136 -122 -60 -194 -76 -330 -76 -136 0 -208 16 -330 76 -70
34 -102 58 -181 136 -78 79 -102 111 -136 181 -60 122 -76 194 -76 330 0 137
16 208 76 330 33 69 59 103 132 176 122 124 245 189 404 214 73 12 217 4 294
-16z"/>
</g>
</svg>
