<?xml version="1.0" standalone="no"?>
<!DOCTYPE svg PUBLIC "-//W3C//DTD SVG 20010904//EN"
 "http://www.w3.org/TR/2001/REC-SVG-20010904/DTD/svg10.dtd">
<svg version="1.0" xmlns="http://www.w3.org/2000/svg"
 width="512.000000pt" height="512.000000pt" viewBox="0 0 512.000000 512.000000"
 preserveAspectRatio="xMidYMid meet">
<metadata>
Created by potrace 1.11, written by Peter Selinger 2001-2013
</metadata>
<g transform="translate(0.000000,512.000000) scale(0.100000,-0.100000)"
fill="#000000" stroke="none">
<path d="M0 3293 l1 -1828 64 71 c75 83 157 149 206 166 19 6 52 23 74 38 22
14 74 39 115 54 41 16 102 44 135 62 l60 34 -55 -47 c-174 -152 -336 -299
-444 -403 -115 -111 -124 -118 -139 -102 -16 15 -17 -4 -17 -293 0 -170 4
-305 8 -300 5 6 37 46 73 90 101 126 232 251 271 259 23 4 51 26 94 71 34 36
92 86 130 110 67 44 68 45 88 26 31 -28 60 -33 107 -21 58 16 153 113 207 210
51 91 53 87 8 -11 -18 -41 -41 -100 -50 -132 -14 -47 -23 -61 -54 -81 -20 -12
-93 -58 -162 -101 -173 -108 -268 -182 -386 -299 -114 -115 -184 -201 -273
-333 l-61 -91 0 -221 0 -221 2560 0 2560 0 0 291 0 291 -119 162 c-195 264
-250 358 -262 443 -5 37 -19 69 -48 111 -49 69 -102 213 -81 220 34 12 60 55
60 101 0 71 -38 139 -132 237 -81 86 -82 87 -23 38 33 -27 90 -68 125 -91 l65
-42 45 -148 c58 -195 97 -297 155 -413 46 -93 185 -313 205 -325 7 -4 10 698
10 2119 l0 2126 -2560 0 -2560 0 0 -1827z m2223 1790 c29 -3 46 -10 44 -17 -6
-16 -63 -9 -105 15 -27 14 -30 18 -12 14 14 -4 47 -9 73 -12z m331 2 c-6 -16
-24 -21 -24 -7 0 11 11 22 21 22 5 0 6 -7 3 -15z m501 -4 c22 -3 39 -10 37
-16 -5 -16 -74 -5 -107 16 l-30 21 30 -8 c17 -4 48 -10 70 -13z m256 -168 c13
-16 12 -17 -3 -4 -17 13 -22 21 -14 21 2 0 10 -8 17 -17z m-1081 -83 c0 -5 -4
-10 -10 -10 -5 0 -10 5 -10 10 0 6 5 10 10 10 6 0 10 -4 10 -10z m825 0 c3 -5
1 -10 -4 -10 -6 0 -11 5 -11 10 0 6 2 10 4 10 3 0 8 -4 11 -10z m-1100 -90 c3
-5 1 -10 -4 -10 -6 0 -11 5 -11 10 0 6 2 10 4 10 3 0 8 -4 11 -10z m825 0 c0
-5 -2 -10 -4 -10 -3 0 -8 5 -11 10 -3 6 -1 10 4 10 6 0 11 -4 11 -10z m601
-33 c-8 -8 -11 -7 -11 4 0 20 13 34 18 19 3 -7 -1 -17 -7 -23z m-1660 -10 c-8
-8 -11 -7 -11 4 0 20 13 34 18 19 3 -7 -1 -17 -7 -23z m839 24 c0 -6 -4 -13
-10 -16 -5 -3 -10 1 -10 9 0 9 5 16 10 16 6 0 10 -4 10 -9z m-778 -146 c-2
-17 3 -49 12 -70 21 -49 29 -41 11 10 -8 22 -14 49 -14 60 0 11 9 -4 18 -33
10 -29 21 -55 24 -59 6 -5 -17 -33 -27 -33 -12 0 -34 58 -40 106 -5 38 -3 51
7 51 8 0 11 -11 9 -32z m843 -75 c8 -24 12 -46 10 -48 -10 -11 -34 51 -38 103
-5 50 -4 54 4 25 5 -19 16 -55 24 -80z m10 50 c4 -19 14 -46 22 -59 12 -18 12
-22 1 -19 -14 5 -31 49 -41 108 -8 45 8 18 18 -30z m805 -5 c0 -16 7 -41 15
-55 17 -29 18 -40 7 -40 -15 0 -30 45 -36 106 -4 40 -3 53 3 39 5 -11 10 -33
11 -50z m-1692 -82 c11 -19 10 -23 -2 -23 -27 0 -46 93 -28 137 5 12 9 1 12
-37 3 -30 11 -65 18 -77z m831 0 c9 -19 9 -23 -2 -23 -21 0 -37 45 -36 103 l1
52 12 -55 c7 -30 18 -65 25 -77z m826 -5 c4 -11 3 -18 -4 -18 -18 0 -31 46
-30 103 l1 52 13 -60 c6 -33 15 -68 20 -77z m84 7 c-1 -21 -38 71 -38 95 0 16
6 6 19 -30 11 -30 19 -59 19 -65z m-1455 70 c-4 -8 -11 -12 -16 -9 -6 4 -5 10
3 15 19 12 19 11 13 -6z m822 -12 c-10 -10 -19 5 -10 18 6 11 8 11 12 0 2 -7
1 -15 -2 -18z m-631 -169 l60 -14 -50 4 c-27 3 -61 7 -75 11 -16 4 -14 1 9 -9
18 -9 53 -16 77 -16 24 0 44 -4 44 -10 0 -15 -61 -12 -116 6 -60 20 -62 23
-44 34 19 12 22 12 95 -6z m850 -4 c39 -9 38 -9 -10 -5 -27 2 -63 7 -80 10
-28 5 -28 4 5 -9 19 -8 54 -15 78 -15 23 -1 42 -5 42 -11 0 -15 -59 -12 -110
7 -55 20 -54 19 -45 33 7 12 19 11 120 -10z m-837 -80 c17 0 32 -4 32 -10 0
-18 -61 -11 -106 12 -57 28 -57 43 -1 18 23 -11 57 -20 75 -20z m830 0 c17 0
32 -4 32 -10 0 -18 -61 -11 -106 12 -57 28 -57 43 -1 18 23 -11 57 -20 75 -20z
m-1338 23 c0 -14 -19 -38 -25 -32 -8 8 5 39 16 39 5 0 9 -3 9 -7z m820 -14
c-7 -11 -14 -19 -16 -16 -7 7 7 37 17 37 6 0 5 -9 -1 -21z m830 0 c-7 -11 -14
-18 -17 -15 -8 8 5 36 17 36 7 0 7 -6 0 -21z m-1552 -212 c240 -126 566 -195
867 -183 358 13 667 95 804 213 22 18 41 33 44 33 5 0 4 -24 -19 -345 -19
-271 -37 -394 -76 -505 -59 -169 -107 -229 -230 -292 -29 -15 -47 -28 -40 -28
22 0 81 28 119 57 33 25 35 26 25 6 -24 -44 -117 -160 -187 -233 -39 -41 -94
-102 -121 -134 -71 -86 -239 -232 -302 -263 l-54 -26 -129 11 c-90 8 -141 18
-168 31 -79 41 -195 157 -325 326 -75 99 -257 367 -252 373 2 2 17 -3 33 -11
41 -22 140 -49 161 -45 9 3 -17 15 -58 27 -150 46 -190 80 -230 196 -45 130
-57 251 -65 663 l-6 274 61 -50 c34 -27 100 -70 148 -95z m677 23 c10 -11 16
-20 13 -20 -3 0 -13 9 -23 20 -10 11 -16 20 -13 20 3 0 13 -9 23 -20z m830 0
c10 -11 16 -20 13 -20 -3 0 -13 9 -23 20 -10 11 -16 20 -13 20 3 0 13 -9 23
-20z m-278 -66 c-3 -3 -12 -4 -19 -1 -8 3 -5 6 6 6 11 1 17 -2 13 -5z m630
-189 c52 -69 86 -134 155 -294 92 -216 144 -277 332 -391 213 -129 275 -178
476 -380 121 -121 207 -216 227 -250 46 -80 51 -104 9 -42 -82 117 -192 136
-172 29 4 -20 22 -59 41 -87 65 -96 16 -49 -127 122 -164 196 -293 310 -474
417 -169 100 -244 154 -305 218 -66 69 -96 119 -194 328 -40 84 -82 166 -93
182 -19 27 -20 36 -12 128 5 55 9 110 10 123 0 22 1 22 41 -10 23 -18 61 -60
86 -93z m-910 93 c-3 -8 -6 -5 -6 6 -1 11 2 17 5 13 3 -3 4 -12 1 -19z m-217
-8 c0 -5 -5 -10 -11 -10 -5 0 -7 5 -4 10 3 6 8 10 11 10 2 0 4 -4 4 -10z
m1038 -393 c13 -14 42 -67 66 -118 43 -96 104 -194 161 -258 17 -20 62 -94
100 -166 141 -269 196 -338 369 -469 108 -81 168 -136 101 -91 -88 58 -139 69
-169 36 -25 -28 -11 -67 46 -124 53 -53 52 -52 -36 5 -191 126 -302 269 -506
653 -141 266 -153 287 -193 338 -30 38 -30 40 -19 102 7 34 12 76 12 92 0 16
3 33 6 36 9 9 34 -6 62 -36z m-1978 -61 c0 -14 7 -55 16 -93 l16 -68 -24 -15
c-154 -100 -355 -281 -490 -440 -45 -53 -42 -45 78 197 l125 252 112 84 c157
117 167 123 167 83z m-190 -620 c0 -2 -17 -15 -39 -29 -21 -14 -71 -52 -110
-84 -111 -90 -131 -105 -131 -96 0 11 70 78 130 125 68 53 150 99 150 84z
m2192 -131 c6 -11 -17 7 -51 40 -33 33 -61 64 -61 69 0 13 98 -83 112 -109z
m-2017 -79 c-20 -36 -41 -66 -47 -66 -5 0 0 15 11 33 12 17 31 49 43 69 37 65
31 34 -7 -36z m468 4 l37 -50 -43 -63 c-24 -35 -93 -109 -153 -164 -140 -129
-231 -225 -274 -288 -19 -27 -60 -112 -92 -189 -58 -142 -90 -200 -57 -104 10
29 18 68 19 86 0 34 -29 72 -54 72 -22 0 -75 -49 -96 -89 -27 -51 -25 -24 5
54 49 130 114 235 245 393 39 47 407 392 419 392 4 0 23 -22 44 -50z m1275
-60 c17 -41 44 -106 61 -144 17 -38 29 -71 27 -73 -13 -13 -111 198 -130 282
-12 50 10 17 42 -65z m-230 -9 c29 -49 77 -124 108 -166 l55 -77 -63 57 c-35
31 -100 89 -145 128 l-81 71 31 38 c17 21 33 38 36 38 3 0 30 -40 59 -89z
m-914 -70 l59 -59 -22 -31 c-32 -45 -75 -145 -100 -236 -63 -224 -106 -329
-213 -514 -122 -214 -218 -344 -272 -373 -13 -7 -7 4 16 30 49 54 70 97 66
134 -7 68 -67 62 -145 -16 -29 -29 -53 -50 -53 -46 0 7 78 121 183 269 104
145 180 315 236 524 35 128 69 219 107 286 27 47 63 91 74 91 3 0 32 -27 64
-59z m-1431 -223 c-5 -7 -38 -51 -73 -97 -75 -100 -266 -326 -306 -362 -16
-14 -47 -38 -69 -54 l-40 -27 31 28 c80 74 108 151 64 174 -27 14 -90 -3 -128
-35 -70 -59 -37 -16 79 103 69 70 139 144 157 165 27 32 35 36 52 27 26 -14
25 -20 -2 -12 -17 4 -20 2 -15 -11 3 -9 1 -17 -5 -19 -17 -6 -4 -21 38 -43 28
-15 38 -17 42 -7 2 6 9 12 16 12 7 0 11 12 10 30 -2 25 4 32 40 49 23 12 57
37 76 56 33 34 52 47 33 23z m121 -85 c4 -5 21 -13 38 -18 l30 -11 -125 -112
c-69 -62 -128 -112 -132 -112 -4 0 11 20 32 44 21 24 61 82 88 129 50 87 56
93 69 80z m3046 -318 c39 -77 64 -131 56 -120 -77 95 -137 163 -169 190 l-38
33 28 29 c20 21 31 26 40 19 6 -6 44 -74 83 -151z m-78 -200 c109 -148 189
-275 206 -325 15 -42 6 -37 -17 9 -26 50 -75 91 -111 91 -51 0 -63 -76 -23
-153 8 -16 13 -31 11 -33 -2 -2 -40 56 -83 129 -44 73 -98 160 -121 194 -40
59 -41 63 -23 78 16 16 17 16 13 -2 -3 -11 3 -23 17 -31 19 -12 25 -10 54 18
28 27 32 35 22 51 -6 10 -24 21 -39 24 -23 5 -28 12 -28 35 0 15 -13 54 -30
86 l-30 59 40 -45 c22 -25 86 -108 142 -185z m465 -551 c28 -50 62 -109 76
-131 l26 -41 -23 -15 c-15 -11 -23 -25 -23 -46 0 -34 6 -38 27 -18 12 10 12 9
2 -5 -19 -24 2 -31 23 -8 10 11 23 20 29 20 11 -1 131 -169 124 -174 -1 -1
-16 -6 -32 -11 -30 -10 -55 -39 -44 -51 4 -3 17 3 29 15 36 33 72 23 114 -32
28 -37 38 -60 42 -101 3 -31 1 -61 -5 -72 -9 -16 -11 -11 -12 29 0 110 -84
208 -130 152 -18 -21 -23 -92 -11 -145 16 -72 5 -57 -24 32 -37 114 -115 272
-166 338 -131 168 -229 340 -229 398 0 15 -9 59 -20 97 -11 38 -20 88 -20 110
0 37 -20 144 -35 190 -3 11 47 -83 113 -210 65 -126 141 -271 169 -321z m174
331 c91 -93 171 -181 179 -195 9 -19 2 -15 -31 16 -44 41 -97 74 -120 74 -7 0
-21 -7 -31 -17 -17 -15 -18 -15 -18 5 0 15 6 22 20 22 11 0 20 5 20 10 0 17
-29 23 -44 11 -11 -9 -21 0 -49 51 -47 85 -111 215 -100 203 5 -5 84 -86 174
-180z m-3865 73 c-30 -46 -71 -114 -92 -153 -48 -89 -120 -199 -141 -216 -8
-8 -1 10 17 40 21 34 35 71 38 101 4 41 1 49 -19 64 -23 16 -23 16 -2 16 11 0
23 -7 27 -15 3 -8 10 -15 16 -15 14 0 13 33 -2 48 -10 10 -7 18 12 37 28 27
194 174 197 175 2 0 -22 -37 -51 -82z m1379 -519 c25 -6 56 -22 70 -35 14 -13
28 -24 30 -24 2 0 5 15 7 33 3 31 5 32 48 32 l45 0 3 -168 2 -168 68 3 67 3 3
118 c2 109 4 117 22 117 19 0 20 -7 20 -134 0 -74 5 -147 11 -163 12 -32 47
-73 63 -73 6 0 0 7 -13 16 -41 29 -51 72 -51 219 0 126 1 135 19 135 18 0 19
-10 23 -144 3 -137 4 -146 27 -170 17 -18 35 -26 57 -26 81 0 94 28 94 205 0
130 1 135 21 135 20 0 20 -4 17 -154 -3 -169 -8 -183 -73 -212 -16 -7 -24 -13
-17 -14 28 0 70 31 86 64 12 26 16 65 16 175 0 116 3 141 14 141 11 0 16 14
18 48 l3 47 82 3 c101 3 152 -9 197 -49 60 -52 60 -135 0 -193 -34 -33 -34
-34 -16 -56 18 -22 18 -21 71 89 30 61 55 111 57 111 2 0 32 -55 66 -122 l63
-123 5 145 5 145 45 0 45 0 3 -172 2 -173 100 0 100 0 0 -35 0 -35 -121 0
c-111 0 -121 -1 -114 -17 13 -34 10 -38 -38 -41 -45 -3 -48 -2 -58 27 l-11 31
-89 0 c-88 0 -89 0 -104 -30 -14 -27 -21 -30 -60 -30 -25 0 -45 5 -45 10 0 6
9 28 20 50 11 22 20 44 20 49 0 5 -17 37 -37 70 -32 50 -43 61 -65 61 -28 0
-28 -1 -28 -65 l0 -65 -47 0 c-43 -1 -50 -4 -68 -32 -32 -51 -80 -73 -155 -73
-74 0 -127 26 -157 76 l-17 29 -123 0 -123 0 0 102 0 101 -23 -21 c-33 -31
-90 -52 -141 -52 l-45 0 -3 -87 -3 -88 -47 -3 -48 -3 0 229 c0 126 3 232 7
235 10 11 150 8 198 -4z"/>
<path d="M1834 3693 c4 -9 -1 -10 -20 -3 -36 14 -54 12 -54 -5 0 -8 -11 -17
-25 -21 -38 -9 -25 -15 62 -29 43 -6 87 -16 97 -20 16 -7 18 -5 12 11 -6 15
-2 14 20 -6 21 -19 26 -21 21 -7 -8 21 -1 18 58 -27 28 -21 34 -23 21 -8 -25
28 -15 28 48 -4 l51 -26 -29 31 c-30 31 -43 40 -31 21 9 -14 -1 -12 -36 6 -17
8 -29 18 -26 21 3 2 15 -1 27 -7 41 -22 30 -3 -25 44 -30 26 -52 40 -48 31 5
-14 2 -16 -18 -10 -13 4 -29 11 -35 16 -16 13 -75 6 -70 -8z m137 -50 c13 -15
12 -15 -8 -4 -24 12 -29 21 -14 21 5 0 15 -7 22 -17z"/>
<path d="M2021 3669 c12 -18 36 -39 53 -48 16 -9 53 -37 81 -62 41 -39 52 -45
62 -34 10 11 6 20 -24 44 -21 17 -33 31 -28 31 5 0 29 -17 54 -38 83 -67 79
-65 79 -38 0 27 -31 62 -46 52 -5 -3 -17 3 -27 14 -10 11 -24 20 -30 20 -7 0
-18 7 -25 15 -7 8 -22 15 -33 15 -11 0 -30 8 -41 17 -12 10 -5 0 14 -21 l35
-38 -49 31 c-27 16 -55 39 -63 51 -8 11 -19 20 -24 20 -6 0 0 -14 12 -31z"/>
<path d="M3085 3640 c-32 -33 -59 -42 -30 -10 18 20 18 21 -1 14 -10 -4 -28
-14 -38 -23 -18 -15 -19 -15 -12 12 5 20 3 27 -4 22 -16 -10 -90 -105 -90
-116 0 -20 16 -7 40 31 15 24 27 35 31 28 4 -6 1 -18 -7 -25 -8 -8 -14 -19
-14 -24 0 -18 31 -9 56 16 30 30 38 32 24 5 -11 -20 -10 -20 12 -8 13 7 25 15
28 18 3 3 14 12 24 20 18 14 19 13 13 -3 -5 -14 -2 -16 19 -13 15 3 34 12 44
21 23 21 36 19 19 -2 -13 -17 -12 -17 4 -4 11 9 45 15 83 16 36 1 70 7 77 14
8 8 3 11 -22 11 -18 0 -30 4 -27 9 4 5 1 11 -6 13 -14 5 -85 -6 -113 -18 -18
-7 -19 -6 -5 12 8 10 0 6 -18 -10 -33 -31 -45 -26 -15 6 14 16 15 18 0 18 -9
0 -19 -4 -22 -10 -3 -5 -11 -10 -16 -10 -6 0 -7 5 -4 10 11 19 -1 10 -30 -20z"/>
<path d="M2896 3613 c-27 -27 -28 -27 -21 -5 6 21 5 22 -12 14 -10 -6 -27 -19
-37 -31 -10 -11 -22 -18 -27 -16 -11 7 -52 -52 -46 -68 2 -6 12 3 21 21 20 39
31 38 17 -2 -15 -39 -4 -31 19 13 11 22 25 43 31 46 6 4 4 -7 -5 -23 -19 -37
-20 -42 -3 -42 6 0 21 13 31 28 11 15 31 42 44 60 30 39 26 41 -12 5z"/>
<path d="M2923 3607 c-41 -46 -69 -98 -43 -82 14 9 73 96 68 101 -3 2 -14 -6
-25 -19z"/>
<path d="M3350 3604 l-25 -15 25 5 c14 3 28 6 33 6 4 0 7 5 7 10 0 14 -10 12
-40 -6z"/>
<path d="M2731 3534 c0 -11 3 -14 6 -6 3 7 2 16 -1 19 -3 4 -6 -2 -5 -13z"/>
<path d="M1817 3480 c3 -11 9 -18 13 -15 5 3 11 1 14 -4 4 -5 -2 -12 -11 -14
-16 -4 -16 -5 1 -6 16 -1 17 -3 5 -17 -12 -15 -11 -16 9 -10 14 5 22 3 22 -4
0 -7 6 -10 14 -7 19 7 28 -17 13 -34 -10 -11 -9 -11 3 -1 22 15 62 12 55 -6
-3 -9 0 -10 12 -4 20 12 55 3 46 -12 -3 -6 0 -6 8 2 7 6 29 12 49 12 19 0 67
9 105 20 85 24 108 25 143 3 l27 -17 -19 21 c-27 32 -63 36 -141 13 -83 -24
-162 -26 -211 -5 -20 8 -58 35 -86 60 -54 49 -79 58 -71 25z"/>
<path d="M3185 3405 c-108 -55 -156 -63 -249 -41 -86 20 -107 20 -132 2 -17
-13 -15 -14 22 -9 24 3 69 -2 105 -11 65 -16 179 -18 179 -3 0 5 5 5 10 2 6
-3 10 -2 10 3 0 6 18 9 39 8 34 -2 38 0 31 14 -8 14 -2 19 32 30 82 24 94 30
78 40 -24 15 -32 13 -125 -35z"/>
<path d="M3285 3400 c3 -5 11 -10 16 -10 6 0 7 5 4 10 -3 6 -11 10 -16 10 -6
0 -7 -4 -4 -10z"/>
<path d="M2372 2955 c-23 -50 -11 -89 35 -113 12 -7 30 -12 40 -12 10 -1 36
-9 58 -20 22 -11 52 -19 66 -20 33 0 149 39 172 58 19 17 24 96 7 107 -6 4
-10 -11 -10 -38 0 -25 -6 -49 -12 -54 -16 -13 -136 -53 -157 -53 -9 0 -38 9
-66 19 -27 11 -62 23 -77 26 -41 8 -61 44 -47 84 14 39 7 51 -9 16z"/>
<path d="M2240 2663 c0 -4 15 -18 33 -30 17 -13 57 -41 87 -62 75 -54 162 -78
227 -62 48 12 233 108 233 121 0 11 -213 19 -254 10 -23 -5 -51 -4 -79 5 -50
15 -247 29 -247 18z m242 -37 c32 -9 61 -11 96 -5 28 4 72 4 99 0 l48 -8 -69
-8 c-80 -9 -189 -1 -261 19 l-50 14 46 1 c25 1 66 -5 91 -13z m-27 -33 c55
-11 108 -14 170 -10 l90 6 -60 -31 c-78 -40 -147 -42 -227 -4 -55 26 -117 79
-73 62 11 -4 56 -15 100 -23z"/>
<path d="M4495 2807 c-8 -11 -11 -25 -7 -31 3 -6 5 -20 3 -31 -3 -17 -1 -18
15 -5 10 8 15 10 11 3 -4 -6 -3 -14 2 -17 10 -7 66 62 57 71 -3 4 -16 -2 -28
-13 -23 -19 -23 -19 -5 2 23 28 21 39 -8 40 -15 1 -31 -6 -40 -19z"/>
<path d="M4684 2595 c-8 -13 -14 -32 -12 -42 3 -14 8 -11 21 15 11 19 25 32
37 32 11 0 20 5 20 10 0 21 -50 10 -66 -15z"/>
<path d="M3994 2695 c-22 -14 -29 -68 -10 -72 5 -1 13 -7 17 -15 6 -10 18 -4
46 26 25 25 34 40 25 43 -6 3 -10 9 -6 14 3 5 -1 9 -10 9 -8 0 -20 2 -28 5 -7
3 -23 -1 -34 -10z"/>
<path d="M4187 2492 c-20 -22 -23 -76 -5 -70 7 3 15 15 18 29 3 13 16 29 28
35 12 6 19 14 15 17 -12 13 -40 7 -56 -11z"/>
<path d="M1606 2221 c-3 -5 -15 -7 -26 -4 -14 4 -20 0 -20 -10 0 -8 -2 -22 -5
-29 -8 -20 73 -57 84 -39 5 7 12 12 17 12 12 -1 12 31 0 47 -14 20 -44 33 -50
23z"/>
<path d="M1422 1968 c3 -7 18 -15 34 -16 16 -2 36 -10 46 -18 21 -19 33 -2 18
26 -8 16 -21 20 -56 20 -32 0 -44 -4 -42 -12z"/>
<path d="M1860 1769 c0 -6 -8 -8 -19 -4 -15 4 -18 0 -18 -20 0 -20 7 -29 34
-40 36 -15 58 -12 47 7 -4 6 -2 8 4 4 6 -3 13 -2 16 3 4 5 2 12 -4 16 -6 4 -8
10 -5 15 3 5 -3 14 -14 19 -25 14 -41 14 -41 0z"/>
<path d="M1687 1544 c-11 -11 3 -24 27 -24 13 0 31 -10 39 -22 16 -23 16 -23
16 -2 1 12 -5 26 -12 32 -17 14 -61 25 -70 16z"/>
<path d="M350 1979 c0 -5 13 -15 29 -20 16 -6 31 -19 34 -30 7 -27 27 -24 27
5 0 14 -10 32 -22 40 -25 18 -68 21 -68 5z"/>
<path d="M3876 1469 c-19 -22 -24 -35 -17 -42 7 -7 17 -2 31 16 12 15 30 27
42 27 26 0 18 24 -9 28 -13 2 -30 -8 -47 -29z"/>
<path d="M1910 869 l0 -71 43 7 c54 9 77 30 77 71 0 41 -30 64 -82 64 l-38 0
0 -71z"/>
<path d="M2810 875 c0 -76 7 -82 69 -65 100 27 72 130 -34 130 l-35 0 0 -65z"/>
<path d="M3080 698 c-12 -29 -24 -59 -27 -65 -4 -10 10 -13 52 -13 53 0 56 1
50 21 -10 29 -45 109 -49 109 -2 0 -13 -24 -26 -52z"/>
<path d="M4989 894 c-19 -23 -19 -66 0 -80 22 -17 83 33 75 61 -8 25 -5 22
-35 30 -18 4 -30 1 -40 -11z"/>
<path d="M60 765 c-9 -25 1 -39 42 -56 24 -10 33 -10 36 -1 2 7 8 10 13 6 5
-3 9 8 9 25 0 35 -21 50 -64 48 -18 -1 -31 -9 -36 -22z"/>
</g>
</svg>
