<?xml version="1.0" standalone="no"?>
<!DOCTYPE svg PUBLIC "-//W3C//DTD SVG 20010904//EN"
 "http://www.w3.org/TR/2001/REC-SVG-20010904/DTD/svg10.dtd">
<svg version="1.0" xmlns="http://www.w3.org/2000/svg"
 width="512.000000pt" height="512.000000pt" viewBox="0 0 512.000000 512.000000"
 preserveAspectRatio="xMidYMid meet">

<g transform="translate(0.000000,512.000000) scale(0.100000,-0.100000)"
fill="#ffffff" stroke="none">
<path d="M2321 5110 c-497 -48 -990 -251 -1376 -565 -114 -92 -294 -274 -384
-387 -229 -287 -417 -675 -495 -1023 -49 -218 -60 -325 -60 -575 0 -250 11
-357 60 -575 79 -355 272 -749 509 -1040 92 -114 274 -294 387 -384 287 -229
675 -417 1023 -495 218 -49 325 -60 575 -60 250 0 357 11 575 60 261 58 603
204 828 353 389 259 688 599 893 1016 125 255 196 484 241 775 24 161 24 539
0 700 -45 291 -116 520 -241 775 -134 272 -283 480 -498 692 -211 209 -404
346 -673 478 -252 124 -486 197 -765 240 -126 19 -468 27 -599 15z m2149
-1585 l0 -105 -345 0 -345 0 0 105 0 105 345 0 345 0 0 -105z m-1560 -280 l0
-105 -350 0 -350 0 0 105 0 105 350 0 350 0 0 -105z m1560 0 l0 -105 -345 0
-345 0 0 105 0 105 345 0 345 0 0 -105z m-1560 -270 l0 -105 -350 0 -350 0 0
105 0 105 350 0 350 0 0 -105z m1560 0 l0 -105 -345 0 -345 0 0 105 0 105 345
0 345 0 0 -105z m-3130 -280 l0 -105 -345 0 -345 0 0 105 0 105 345 0 345 0 0
-105z m1570 0 l0 -105 -350 0 -350 0 0 105 0 105 350 0 350 0 0 -105z m780 0
l0 -105 -350 0 -350 0 0 105 0 105 350 0 350 0 0 -105z m780 0 l0 -105 -345 0
-345 0 0 105 0 105 345 0 345 0 0 -105z m-3130 -270 l0 -105 -345 0 -345 0 0
105 0 105 345 0 345 0 0 -105z m1570 0 l0 -105 -350 0 -350 0 0 105 0 105 350
0 350 0 0 -105z m780 0 l0 -105 -350 0 -350 0 0 105 0 105 350 0 350 0 0 -105z
m780 0 l0 -105 -345 0 -345 0 0 105 0 105 345 0 345 0 0 -105z m-3130 -280 l0
-105 -345 0 -345 0 0 105 0 105 345 0 345 0 0 -105z m790 0 l0 -105 -350 0
-350 0 0 105 0 105 350 0 350 0 0 -105z m780 0 l0 -105 -350 0 -350 0 0 105 0
105 350 0 350 0 0 -105z m780 0 l0 -105 -350 0 -350 0 0 105 0 105 350 0 350
0 0 -105z m780 0 l0 -105 -345 0 -345 0 0 105 0 105 345 0 345 0 0 -105z
m-3130 -270 l0 -105 -345 0 -345 0 0 105 0 105 345 0 345 0 0 -105z m790 0 l0
-105 -350 0 -350 0 0 105 0 105 350 0 350 0 0 -105z m780 0 l0 -105 -350 0
-350 0 0 105 0 105 350 0 350 0 0 -105z m780 0 l0 -105 -350 0 -350 0 0 105 0
105 350 0 350 0 0 -105z m780 0 l0 -105 -345 0 -345 0 0 105 0 105 345 0 345
0 0 -105z m-3130 -280 l0 -105 -345 0 -345 0 0 105 0 105 345 0 345 0 0 -105z
m788 3 l-3 -103 -347 -3 -348 -2 0 105 0 105 350 0 351 0 -3 -102z m782 -3 l0
-105 -350 0 -350 0 0 105 0 105 350 0 350 0 0 -105z m780 0 l0 -105 -347 2
-348 3 -3 103 -3 102 351 0 350 0 0 -105z m780 0 l0 -105 -345 0 -345 0 0 105
0 105 345 0 345 0 0 -105z"/>
</g>
</svg>
