<?xml version="1.0" standalone="no"?>
<!DOCTYPE svg PUBLIC "-//W3C//DTD SVG 20010904//EN"
 "http://www.w3.org/TR/2001/REC-SVG-20010904/DTD/svg10.dtd">
<svg version="1.0" xmlns="http://www.w3.org/2000/svg"
 width="512.000000pt" height="512.000000pt" viewBox="0 0 512.000000 512.000000"
 preserveAspectRatio="xMidYMid meet">

<g transform="translate(0.000000,512.000000) scale(0.100000,-0.100000)"
fill="#ffffff" stroke="none">
<path d="M2245 5085 c-614 -75 -1215 -395 -1615 -861 -526 -612 -734 -1396
-579 -2184 145 -732 615 -1372 1278 -1739 108 -60 248 -123 371 -168 105 -38
326 -96 408 -108 l52 -7 0 891 0 891 -325 0 -325 0 0 370 0 370 325 0 325 0 0
328 c0 352 8 460 47 592 93 325 310 531 651 618 100 25 482 24 690 -2 l152
-20 0 -318 0 -318 -207 0 c-115 0 -227 -5 -251 -10 -142 -33 -240 -133 -271
-278 -6 -32 -11 -161 -11 -322 l0 -270 356 0 356 0 -6 -28 c-3 -15 -28 -175
-56 -357 -28 -181 -52 -336 -55 -342 -3 -10 -73 -13 -300 -13 l-295 0 0 -891
0 -891 53 7 c150 21 413 102 597 185 439 198 828 531 1093 936 487 743 550
1691 167 2499 -374 788 -1141 1339 -2008 1440 -155 18 -465 18 -617 0z"/>
</g>
</svg>
