<?xml version="1.0" standalone="no"?>
<!DOCTYPE svg PUBLIC "-//W3C//DTD SVG 20010904//EN"
 "http://www.w3.org/TR/2001/REC-SVG-20010904/DTD/svg10.dtd">
<svg version="1.0" xmlns="http://www.w3.org/2000/svg"
 width="512.000000pt" height="512.000000pt" viewBox="0 0 512.000000 512.000000"
 preserveAspectRatio="xMidYMid meet">

<g transform="translate(0.000000,512.000000) scale(0.100000,-0.100000)"
fill="#ffffff" stroke="none">
<path d="M202 5095 c-65 -30 -140 -104 -172 -170 l-25 -50 -3 -2295 -2 -2295
30 -62 c38 -77 119 -153 198 -185 l57 -23 2265 0 2265 0 53 22 c106 43 187
126 222 227 20 55 20 91 18 2323 l-3 2268 -27 57 c-36 77 -98 141 -171 178
l-60 30 -2296 0 -2296 0 -53 -25z m1009 -675 c79 -15 167 -62 227 -121 285
-285 70 -770 -331 -747 -97 6 -172 32 -242 86 -102 78 -162 188 -172 318 -22
285 236 517 518 464z m2539 -1179 c326 -82 494 -286 576 -701 15 -75 18 -187
21 -927 l4 -843 -375 0 -376 0 0 583 c-1 928 -12 1023 -131 1152 -72 78 -192
112 -337 95 -200 -23 -316 -135 -364 -353 -19 -86 -21 -136 -25 -784 l-5 -693
-374 0 -374 0 0 1220 0 1220 360 0 360 0 0 -165 c0 -91 3 -165 8 -164 4 0 30
32 57 72 104 149 272 255 480 303 93 21 385 12 495 -15z m-2240 -1251 l0
-1220 -380 0 -380 0 0 1220 0 1220 380 0 380 0 0 -1220z"/>
</g>
</svg>
