<?xml version="1.0" standalone="no"?>
<!DOCTYPE svg PUBLIC "-//W3C//DTD SVG 20010904//EN"
 "http://www.w3.org/TR/2001/REC-SVG-20010904/DTD/svg10.dtd">
<svg version="1.0" xmlns="http://www.w3.org/2000/svg"
 width="512.000000pt" height="512.000000pt" viewBox="0 0 512.000000 512.000000"
 preserveAspectRatio="xMidYMid meet">

<g transform="translate(0.000000,512.000000) scale(0.100000,-0.100000)"
fill="#ffffff" stroke="none">
<path d="M2321 5110 c-497 -48 -990 -251 -1376 -565 -114 -92 -294 -274 -384
-387 -229 -287 -417 -675 -495 -1023 -49 -218 -60 -325 -60 -575 0 -250 11
-357 60 -575 79 -355 272 -749 509 -1040 92 -114 274 -294 387 -384 287 -229
675 -417 1023 -495 218 -49 325 -60 575 -60 250 0 357 11 575 60 261 58 603
204 828 353 389 259 688 599 893 1016 125 255 196 484 241 775 24 161 24 539
0 700 -45 291 -116 520 -241 775 -134 272 -283 480 -498 692 -211 209 -404
346 -673 478 -252 124 -486 197 -765 240 -126 19 -468 27 -599 15z m1014
-1625 c197 -57 380 -186 510 -359 77 -104 157 -300 171 -422 6 -51 9 -55 28
-49 12 3 53 13 91 21 165 37 355 -19 478 -142 108 -106 157 -215 164 -364 9
-165 -40 -293 -157 -411 -71 -72 -173 -128 -268 -148 -36 -7 -311 -11 -852
-11 -787 0 -800 0 -820 20 -20 20 -20 33 -20 909 0 978 -4 908 59 933 183 69
424 78 616 23z m-750 -110 c21 -20 25 -34 26 -87 0 -35 6 -315 13 -623 10
-455 10 -598 0 -760 -7 -110 -13 -215 -13 -232 -1 -61 -67 -96 -104 -55 -13
14 -19 64 -29 252 -11 190 -11 352 -1 850 7 338 15 625 18 638 5 20 32 39 58
41 4 1 19 -10 32 -24z m-181 -107 c23 -36 43 -1073 27 -1394 -14 -259 -17
-274 -71 -274 -15 0 -33 7 -40 15 -25 30 -34 448 -24 1062 9 536 11 573 28
592 25 28 62 27 80 -1z m-565 -126 c6 -10 17 -247 26 -527 16 -475 16 -523 0
-749 -9 -132 -22 -247 -27 -253 -13 -17 -53 -17 -66 0 -6 7 -17 120 -26 252
-13 214 -14 295 0 754 9 336 18 519 26 528 15 19 56 16 67 -5z m185 -24 c11
-18 17 -125 28 -518 13 -422 13 -528 1 -720 -7 -124 -16 -235 -18 -247 -9 -42
-80 -42 -90 0 -3 12 -11 123 -18 247 -17 313 5 1214 30 1242 22 24 50 23 67
-4z m-369 -8 c4 -6 14 -234 24 -508 17 -474 17 -508 0 -735 -11 -146 -22 -244
-29 -253 -15 -17 -44 -18 -58 -1 -6 6 -18 120 -27 252 -15 223 -15 277 0 735
10 310 20 499 27 507 13 16 54 17 63 3z m564 -29 c5 -9 15 -232 22 -496 10
-385 10 -527 0 -710 -14 -247 -20 -275 -66 -275 -46 0 -52 28 -65 278 -9 176
-9 345 0 700 6 257 13 477 16 490 8 40 74 49 93 13z m-753 -53 c4 -6 16 -208
26 -447 18 -418 19 -446 2 -686 -9 -137 -21 -260 -25 -272 -9 -23 -52 -33 -63
-15 -3 5 -13 119 -22 254 -16 230 -16 275 -1 696 9 247 19 457 23 466 7 19 49
22 60 4z m-175 -208 c4 -25 15 -200 24 -390 17 -338 17 -350 -3 -578 -12 -127
-24 -237 -27 -242 -11 -18 -45 -11 -54 13 -4 12 -15 132 -24 267 -16 230 -16
267 1 600 10 195 21 361 26 368 4 7 17 12 29 10 17 -2 23 -12 28 -48z m-373
-213 c6 -7 21 -122 33 -256 l22 -242 -22 -235 c-12 -129 -24 -241 -28 -249 -8
-22 -32 -18 -42 8 -4 12 -16 130 -25 262 -17 233 -17 246 2 471 11 128 23 237
26 243 9 15 21 14 34 -2z m-173 -19 c3 -7 15 -118 28 -246 l23 -233 -23 -227
c-13 -125 -25 -233 -28 -239 -7 -21 -34 -15 -39 10 -3 12 -14 121 -24 242
l-20 220 23 240 c13 132 23 241 24 243 3 8 32 0 36 -10z m359 -16 c3 -5 15
-111 27 -237 l21 -228 -21 -241 c-23 -252 -32 -289 -65 -256 -11 11 -20 79
-34 258 -18 238 -18 248 0 465 10 122 20 228 23 235 5 13 41 17 49 4z m-534
-58 c0 -4 11 -97 25 -208 l26 -201 -26 -195 c-37 -285 -53 -285 -84 0 l-21
195 20 195 c12 107 23 201 25 208 4 12 35 17 35 6z m-166 -161 c3 -10 13 -69
22 -131 16 -107 16 -119 -1 -238 -12 -84 -23 -128 -32 -131 -8 -3 -16 -4 -18
-1 -2 2 -12 61 -21 130 -16 118 -16 135 -1 248 9 67 19 126 22 131 10 14 23
11 29 -8z"/>
</g>
</svg>
