<?xml version="1.0" standalone="no"?>
<!DOCTYPE svg PUBLIC "-//W3C//DTD SVG 20010904//EN"
 "http://www.w3.org/TR/2001/REC-SVG-20010904/DTD/svg10.dtd">
<svg version="1.0" xmlns="http://www.w3.org/2000/svg"
 width="500.000000pt" height="500.000000pt" viewBox="0 0 500.000000 500.000000"
 preserveAspectRatio="xMidYMid meet">

<g transform="translate(0.000000,500.000000) scale(0.100000,-0.100000)"
fill="#ffffff" stroke="none">
<path d="M2224 4785 c-595 -76 -1146 -383 -1516 -845 -219 -274 -377 -603
-452 -940 -42 -191 -51 -282 -50 -505 0 -239 15 -359 70 -574 159 -620 590
-1160 1167 -1461 221 -115 473 -197 727 -236 157 -25 501 -25 655 -1 256 40
463 104 690 216 462 227 817 583 1050 1053 155 312 235 656 235 1008 0 776
-391 1500 -1040 1924 -275 181 -548 287 -887 347 -155 27 -488 35 -649 14z
m454 -1310 c407 -45 782 -142 1087 -282 279 -127 330 -172 330 -293 0 -55 -4
-73 -27 -107 -40 -61 -90 -88 -163 -88 -55 0 -73 6 -220 81 -394 198 -825 295
-1380 311 -318 8 -683 -20 -990 -78 -160 -30 -226 -13 -283 74 -23 34 -27 52
-27 107 0 55 4 73 27 107 15 22 42 50 60 61 58 35 370 88 658 112 74 6 155 12
180 14 105 9 614 -4 748 -19z m-48 -795 c241 -29 498 -90 691 -165 113 -44
305 -139 384 -189 61 -40 94 -93 95 -154 0 -101 -103 -188 -201 -168 -16 3
-78 33 -137 66 -247 138 -500 222 -807 267 -95 14 -182 18 -410 17 -314 -1
-495 -17 -753 -70 -99 -19 -131 -22 -161 -14 -103 27 -160 144 -115 233 22 42
43 66 75 83 58 30 384 83 639 104 134 11 576 5 700 -10z m-55 -704 c310 -46
590 -139 801 -267 91 -55 124 -97 124 -161 -1 -109 -126 -182 -220 -128 -189
108 -323 162 -528 214 -348 87 -702 86 -1072 -5 -75 -19 -137 -29 -157 -26
-68 11 -123 77 -123 146 0 49 35 108 78 130 70 36 332 90 532 111 117 12 444
4 565 -14z"/>
</g>
</svg>
