<?xml version="1.0" standalone="no"?>
<!DOCTYPE svg PUBLIC "-//W3C//DTD SVG 20010904//EN"
 "http://www.w3.org/TR/2001/REC-SVG-20010904/DTD/svg10.dtd">
<svg version="1.0" xmlns="http://www.w3.org/2000/svg"
 width="500.000000pt" height="500.000000pt" viewBox="0 0 500.000000 500.000000"
 preserveAspectRatio="xMidYMid meet">

<g transform="translate(0.000000,500.000000) scale(0.100000,-0.100000)"
fill="#ffffff" stroke="none">
<path d="M783 4586 c-181 -44 -334 -202 -372 -384 -16 -75 -16 -3329 0 -3404
39 -187 200 -348 387 -387 75 -16 3329 -16 3404 0 187 39 348 200 387 387 16
75 16 3329 0 3404 -39 187 -200 348 -387 387 -81 17 -3349 14 -3419 -3z m2245
-773 c40 -163 126 -303 249 -406 101 -84 295 -167 390 -167 l33 0 0 -234 0
-233 -29 -6 c-47 -10 -198 11 -280 39 -134 45 -259 131 -337 233 -22 28 -42
50 -46 51 -5 0 -8 -282 -8 -627 0 -593 -1 -633 -20 -711 -40 -166 -123 -307
-253 -428 -162 -150 -351 -224 -576 -224 -487 0 -871 401 -848 885 7 131 26
211 79 325 81 176 218 315 393 400 125 61 193 79 323 87 l102 6 0 -212 0 -211
-65 0 c-176 0 -343 -128 -396 -302 -32 -103 -24 -219 21 -313 105 -219 364
-309 588 -205 85 40 174 126 214 208 30 61 32 73 39 216 4 83 8 548 8 1034 l1
882 198 0 199 0 21 -87z"/>
</g>
</svg>
