<?xml version="1.0" standalone="no"?>
<!DOCTYPE svg PUBLIC "-//W3C//DTD SVG 20010904//EN"
 "http://www.w3.org/TR/2001/REC-SVG-20010904/DTD/svg10.dtd">
<svg version="1.0" xmlns="http://www.w3.org/2000/svg"
 width="512.000000pt" height="512.000000pt" viewBox="0 0 512.000000 512.000000"
 preserveAspectRatio="xMidYMid meet">

<g transform="translate(0.000000,512.000000) scale(0.100000,-0.100000)"
fill="#ffffff" stroke="none">
<path d="M2348 5110 c-509 -46 -981 -235 -1389 -555 -192 -151 -449 -442 -582
-660 -467 -768 -501 -1710 -90 -2505 548 -1062 1760 -1604 2917 -1305 335 86
673 255 956 479 102 81 331 312 411 416 480 619 654 1392 484 2150 -207 926
-929 1669 -1851 1905 -260 67 -607 97 -856 75z m412 -1420 l0 -380 275 0 275
0 -2 -277 -3 -278 -273 -3 -273 -2 3 -433 c4 -485 5 -494 78 -567 58 -58 108
-70 313 -77 l177 -6 0 -289 0 -290 -342 5 c-389 4 -407 7 -568 84 -166 80
-276 213 -337 408 l-27 90 -4 538 -3 537 -205 0 -204 0 2 241 3 240 85 32
c110 42 196 95 277 170 141 133 241 321 273 518 6 41 14 84 16 97 l4 22 230 0
230 0 0 -380z"/>
</g>
</svg>
