<?xml version="1.0" standalone="no"?>
<!DOCTYPE svg PUBLIC "-//W3C//DTD SVG 20010904//EN"
 "http://www.w3.org/TR/2001/REC-SVG-20010904/DTD/svg10.dtd">
<svg version="1.0" xmlns="http://www.w3.org/2000/svg"
 width="512.000000pt" height="512.000000pt" viewBox="0 0 512.000000 512.000000"
 preserveAspectRatio="xMidYMid meet">

<g transform="translate(0.000000,512.000000) scale(0.100000,-0.100000)"
fill="#ffffff" stroke="none">
<path d="M3367 4625 c-227 -43 -425 -151 -583 -318 -207 -218 -312 -516 -284
-809 5 -53 12 -109 16 -123 l7 -26 -74 6 c-721 64 -1354 351 -1857 839 -62 60
-138 140 -169 178 -31 37 -61 68 -66 68 -13 0 -73 -136 -104 -236 -25 -83 -27
-101 -27 -274 -1 -209 13 -281 82 -434 71 -159 204 -327 326 -414 37 -25 37
-27 15 -30 -63 -10 -284 45 -381 94 -26 13 -51 24 -56 24 -15 0 8 -194 33
-283 63 -221 185 -406 359 -544 117 -92 221 -143 411 -201 60 -18 -73 -37
-263 -37 -111 0 -172 -4 -172 -10 0 -31 117 -240 174 -311 179 -222 446 -368
718 -390 43 -4 75 -11 72 -15 -13 -22 -241 -164 -349 -217 -323 -161 -622
-227 -992 -220 l-193 4 53 -33 c172 -108 476 -243 695 -308 297 -88 522 -119
867 -119 318 0 485 19 770 91 845 211 1555 818 1929 1649 171 381 259 762 273
1186 l6 197 76 60 c103 80 293 276 370 380 34 46 60 85 58 87 -2 2 -51 -14
-110 -36 -119 -45 -316 -96 -410 -106 l-62 -6 47 30 c109 71 253 231 327 363
35 63 84 182 73 177 -4 -2 -57 -28 -117 -59 -133 -69 -271 -121 -422 -160
l-114 -30 -72 62 c-133 115 -279 193 -445 236 -124 32 -319 40 -435 18z"/>
</g>
</svg>
