<?xml version="1.0" standalone="no"?>
<!DOCTYPE svg PUBLIC "-//W3C//DTD SVG 20010904//EN"
 "http://www.w3.org/TR/2001/REC-SVG-20010904/DTD/svg10.dtd">
<svg version="1.0" xmlns="http://www.w3.org/2000/svg"
 width="512.000000pt" height="512.000000pt" viewBox="0 0 512.000000 512.000000"
 preserveAspectRatio="xMidYMid meet">

<g transform="translate(0.000000,512.000000) scale(0.100000,-0.100000)"
fill="#ffffff" stroke="none">
<path d="M393 5106 c-183 -45 -344 -210 -382 -394 -16 -75 -16 -4229 0 -4304
39 -189 208 -358 397 -397 75 -16 4229 -16 4304 0 189 39 358 208 397 397 16
75 16 4229 0 4304 -39 189 -208 358 -397 397 -81 17 -4248 14 -4319 -3z m3547
-971 c139 -43 235 -123 294 -248 56 -117 71 -206 70 -402 -1 -148 -4 -182 -26
-265 -89 -333 -282 -687 -629 -1151 -474 -635 -847 -974 -1189 -1080 -56 -18
-99 -24 -170 -24 -86 0 -101 3 -162 32 -86 40 -185 139 -251 250 -105 175
-136 264 -297 858 -179 660 -214 773 -285 921 -61 127 -120 196 -183 215 -38
11 -45 10 -94 -16 -29 -15 -93 -55 -142 -88 l-90 -60 -28 34 c-16 19 -55 69
-88 111 l-60 77 266 238 c310 277 424 372 538 447 162 108 265 141 395 125
172 -20 302 -153 374 -385 14 -44 53 -247 87 -450 111 -665 178 -930 274
-1083 28 -43 78 -81 109 -81 57 0 165 99 269 246 121 172 251 409 298 544 28
79 39 247 20 305 -19 58 -73 111 -132 131 -70 23 -207 14 -305 -19 -40 -14
-73 -24 -73 -22 0 19 72 201 109 275 168 339 393 520 716 576 104 18 310 12
385 -11z"/>
</g>
</svg>
