<?xml version="1.0" standalone="no"?>
<!DOCTYPE svg PUBLIC "-//W3C//DTD SVG 20010904//EN"
 "http://www.w3.org/TR/2001/REC-SVG-20010904/DTD/svg10.dtd">
<svg version="1.0" xmlns="http://www.w3.org/2000/svg"
 width="512.000000pt" height="512.000000pt" viewBox="0 0 512.000000 512.000000"
 preserveAspectRatio="xMidYMid meet">

<g transform="translate(0.000000,512.000000) scale(0.100000,-0.100000)"
fill="#ffffff" stroke="none">
<path d="M987 5109 c-378 -34 -660 -199 -829 -487 -95 -162 -134 -309 -148
-557 -13 -230 -12 -2910 1 -3060 18 -216 58 -354 145 -506 77 -134 202 -259
342 -341 162 -95 309 -134 557 -148 230 -13 2910 -12 3060 1 216 18 354 58
506 145 134 77 259 202 341 342 95 162 134 309 148 557 13 230 12 2910 -1
3060 -18 216 -58 354 -145 506 -77 134 -202 259 -342 341 -162 95 -309 134
-557 148 -203 12 -2947 10 -3078 -1z m1943 -708 c527 -93 980 -407 1258 -872
287 -478 330 -1088 115 -1613 -216 -529 -679 -936 -1226 -1077 -130 -33 -241
-49 -392 -56 -290 -12 -552 40 -836 166 l-114 51 -474 -125 c-261 -68 -477
-123 -479 -120 -2 2 54 213 124 470 l127 466 -46 93 c-263 526 -261 1124 4
1646 38 74 99 178 137 230 87 123 309 346 432 432 246 174 560 293 865 328
122 14 373 4 505 -19z"/>
<path d="M2450 4114 c-254 -32 -510 -131 -717 -277 -112 -79 -271 -238 -350
-350 -120 -171 -208 -372 -255 -584 -30 -133 -32 -442 -4 -578 35 -176 101
-349 190 -498 25 -43 46 -85 46 -94 0 -8 -32 -132 -71 -274 -39 -143 -69 -263
-67 -268 2 -4 130 26 284 67 l282 74 78 -45 c246 -141 510 -204 809 -194 391
14 732 163 1010 441 212 213 346 457 416 761 32 142 37 395 11 551 -108 629
-570 1113 -1190 1244 -95 21 -384 35 -472 24z m-326 -694 c28 -28 186 -400
186 -437 0 -35 -23 -73 -90 -154 -33 -40 -60 -81 -60 -93 0 -43 158 -256 254
-343 84 -76 185 -143 291 -193 55 -27 109 -51 121 -54 29 -9 60 18 156 136 81
100 81 100 119 95 21 -3 128 -49 236 -104 l198 -98 -1 -70 c0 -38 -6 -88 -12
-110 -26 -91 -104 -169 -229 -228 -66 -31 -73 -32 -198 -32 -127 0 -133 1
-255 43 -305 105 -539 259 -748 491 -266 295 -388 511 -399 711 -9 144 29 259
120 371 65 79 111 101 209 97 67 -3 81 -6 102 -28z"/>
</g>
</svg>
