<?xml version="1.0" standalone="no"?>
<!DOCTYPE svg PUBLIC "-//W3C//DTD SVG 20010904//EN"
 "http://www.w3.org/TR/2001/REC-SVG-20010904/DTD/svg10.dtd">
<svg version="1.0" xmlns="http://www.w3.org/2000/svg"
 width="512.000000pt" height="512.000000pt" viewBox="0 0 512.000000 512.000000"
 preserveAspectRatio="xMidYMid meet">

<g transform="translate(0.000000,512.000000) scale(0.100000,-0.100000)"
fill="#ffffff" stroke="none">
<path d="M2310 4849 c-1167 -131 -2050 -1114 -2050 -2283 0 -463 129 -895 379
-1272 363 -547 918 -903 1576 -1011 155 -25 535 -25 690 0 927 152 1653 810
1885 1709 53 206 65 310 65 568 0 258 -12 362 -65 568 -243 940 -1039 1626
-1999 1722 -119 12 -372 11 -481 -1z m765 -1539 c275 -11 345 -23 408 -70 70
-52 105 -122 129 -263 18 -99 18 -735 0 -834 -27 -157 -85 -250 -182 -292 -82
-35 -268 -45 -870 -45 -774 1 -871 12 -963 114 -47 52 -70 109 -90 224 -17 98
-17 735 1 833 33 192 94 273 230 308 117 30 864 44 1337 25z"/>
<path d="M2340 2586 c0 -163 3 -296 7 -296 8 0 545 279 555 289 5 4 -503 280
-553 299 -5 2 -9 -129 -9 -292z"/>
</g>
</svg>
